<svg width="353" height="231" viewBox="0 0 353 231" fill="none" xmlns="http://www.w3.org/2000/svg">
<path d="M70 2C68.1881 39.5969 69 77.3134 69 114.944C69 138.369 66.6377 161.649 64.0555 184.889C62.4314 199.507 64 214.321 64 229" stroke="black" stroke-width="3" stroke-linecap="round"/>
<path d="M159 2C160.292 19.5977 160.398 37.3271 159.333 54.9444C158.158 74.3847 154.231 93.538 153.222 113C152.591 125.179 152.158 137.701 152.556 149.889C152.876 159.725 153.872 169.986 152.444 179.778C150.332 194.261 149 208.391 149 223" stroke="black" stroke-width="3" stroke-linecap="round"/>
<path d="M230 2C231.172 10.2035 232.922 17.4694 233 26C233.059 32.4515 234.783 36.8218 237.5 42.6111C243.493 55.379 242.156 71.4383 241.944 85.1667C241.638 105.114 238.444 126.141 234.333 145.667C228.777 172.058 219 197.837 219 225" stroke="black" stroke-width="3" stroke-linecap="round"/>
</svg>
